<svg width="58" height="27" viewBox="0 0 58 27" fill="none" xmlns="http://www.w3.org/2000/svg">
<path d="M25.7738 4.57191C26.8868 6.50438 27.7102 8.38967 27.9821 9.5586C28.1446 10.2575 27.9914 11.0237 27.9914 11.7412C27.9914 13.667 26.4303 15.2281 24.5045 15.2281H15.0952C12.9914 15.2281 11.063 13.9115 10.559 11.8689C9.52436 7.67547 9.93716 4.76757 12.3548 2.35304C16.3516 -1.63848 22.9545 -0.322769 25.7738 4.57191Z" fill="#D32F2F"/>
<path d="M31.3987 4.57191C30.2856 6.50438 29.4622 8.38967 29.1904 9.5586C29.0279 10.2575 29.1811 11.0237 29.1811 11.7412C29.1811 13.667 30.7422 15.2281 32.668 15.2281H42.0773C44.1811 15.2281 46.1095 13.9115 46.6135 11.8689C47.6481 7.67547 47.2353 4.76757 44.8177 2.35304C40.8209 -1.63848 34.218 -0.322769 31.3987 4.57191Z" fill="#D32F2F"/>
<path d="M33.4438 10.9152C33.4438 13.5979 31.269 15.7727 28.5862 15.7727C25.9035 15.7727 23.7287 13.5979 23.7287 10.9152C23.7287 8.23248 25.9035 6.0577 28.5862 6.0577C31.269 6.0577 33.4438 8.23248 33.4438 10.9152Z" fill="#AD1717"/>
<path d="M0 16.3385C0 15.2339 0.895431 14.3385 2 14.3385H55.1726C56.2771 14.3385 57.1725 15.2339 57.1725 16.3385V24.204C57.1725 25.3085 56.2771 26.204 55.1725 26.204H2C0.895428 26.204 0 25.3085 0 24.204V16.3385Z" fill="#F3703A"/>
<path d="M23.28 14.3385H33.8925V26.204H23.28V14.3385Z" fill="#D32F2F"/>
</svg>
